<svg xmlns="http://www.w3.org/2000/svg" width="500" height="500" viewBox="0 0 500 500" style="opacity: 0.1">
  <defs>
    <style>
      .cls-1 {
        fill-rule: evenodd;
      }
    </style>
  </defs>
  <path class="cls-1" d="M426.583,482.5c-12.532,3.542-28.3,5.447-41.3,4.091-41.824-4.394-82.883-34.568-91.646-77.95-5.579-27.776-2.763-59.317,6.734-85.876a178.465,178.465,0,0,1,22.294-42.88c12.5-17.443,27.1-33.317,44.668-45.545,17.105-11.878,37.635-17.162,55.241-28.174,0,0,5.055,8.02,2.809,26.935a51.826,51.826,0,0,0,10.71,38.952c5.625,7.457,16.9,22.936,14.64,29.809,0,0-87.307-30.955-121.673,32.651-19.869,36.812-19.042,86.052,12.623,115.92,31.826,30.01,82.655,29,113.59-2.548A68.552,68.552,0,0,0,472.1,417.269a47.624,47.624,0,0,0-5.6-36.332c-7.113-11.458-25.914-29.8-53.276-19.629-5.084,1.882-14.8,9.306-12.8,21.148,1.868,11.082,15.537-1.321,24.783,6.873,9.521,8.441,11.249,24.235,3.366,33.914-8.544,10.51-23.862,11.9-35.434,6.839-11.434-4.992-18.031-16.343-20.139-28.525-7-40.05,36.612-66.318,72.1-56.721,20.035,5.425,38.406,26.35,41.922,46.6C494.085,431.813,464.494,471.793,426.583,482.5ZM292.131,292.593c-8.866,27.577-13.319,75.823-29.453,85.362v47.637a32.072,32.072,0,0,1,18.881,29.355c0,17.723-14.135,32.09-31.551,32.09s-31.551-14.367-31.551-32.09a32.1,32.1,0,0,1,18.881-29.355V377.955c-16.151-9.539-20.587-57.785-29.453-85.362-13.853-43.031-44.042-73.753-83.165-94.025-8.107-4.209-35.342-13.911-35.342-13.911,18.024-6.874,36.33-17.1,48.052-40.5,5.085-10.1,11.624-22.749,20.529-29.811,6.988,20.014,16.417,39.023,26.242,57.715,16.076,30.477,30.568,60.381,39.858,93.838,4.345,15.641,8.114,31.47,11.618,47.322,1.34,6.009,3.759,12.883,3.908,19.079,0,0-1.494-60.533-4.5-129.318-3.068-70.211-46.558-100.08-46.558-100.08,47.317-19.114,61.486-90.939,61.486-90.939s14.169,71.825,61.486,90.939c0,0-43.49,29.869-46.558,100.08-3.023,68.785-4.506,129.318-4.506,129.318,0.15-6.2,2.569-13.07,3.908-19.079,3.5-15.852,7.263-31.681,11.618-47.322,9.291-33.457,23.782-63.361,39.847-93.838,9.848-18.692,19.266-37.7,26.247-57.715,8.9,7.062,15.462,19.71,20.518,29.811,11.739,23.392,30.046,33.621,48.07,40.5,0,0-27.236,9.7-35.354,13.911C336.173,218.84,306,249.562,292.131,292.593ZM177.352,279.886a178.537,178.537,0,0,1,22.294,42.88c9.509,26.559,12.319,58.1,6.716,85.876-8.744,43.382-49.8,73.556-91.628,77.95-13,1.356-28.769-.549-41.312-4.091-37.9-10.708-67.5-50.688-60.447-91.067,3.523-20.248,21.91-41.173,41.933-46.6,35.492-9.6,79.1,16.671,72.116,56.721-2.119,12.182-8.716,23.533-20.151,28.525-11.572,5.062-26.889,3.671-35.434-6.839-7.883-9.679-6.154-25.473,3.367-33.914,9.257-8.194,22.915,4.209,24.782-6.873,2-11.842-7.7-19.266-12.8-21.148-27.373-10.17-46.179,8.171-53.276,19.629a47.626,47.626,0,0,0-5.6,36.332,68.6,68.6,0,0,0,16.829,30.617c30.935,31.552,81.763,32.558,113.59,2.548,31.665-29.868,32.492-79.108,12.606-115.92-34.349-63.606-121.656-32.651-121.656-32.651-2.258-6.873,9.015-22.352,14.64-29.809a51.778,51.778,0,0,0,10.7-38.952c-2.252-18.915,2.822-26.935,2.822-26.935,17.6,11.012,38.123,16.3,55.24,28.174C150.26,246.569,164.855,262.443,177.352,279.886Z"/>
</svg>